<?xml version="1.0" standalone="no"?>
<!DOCTYPE svg PUBLIC "-//W3C//DTD SVG 20010904//EN"
 "http://www.w3.org/TR/2001/REC-SVG-20010904/DTD/svg10.dtd">
<svg version="1.0" xmlns="http://www.w3.org/2000/svg"
 width="569.000000pt" height="569.000000pt" viewBox="0 0 569.000000 569.000000"
 preserveAspectRatio="xMidYMid meet">
<metadata>
Created by potrace 1.14, written by Peter Selinger 2001-2017
</metadata>
<g transform="translate(0.000000,569.000000) scale(0.100000,-0.100000)"
fill="#000000" stroke="none">
<path d="M2797 5684 c-1 -1 -56 -4 -122 -8 -66 -3 -129 -8 -140 -10 -11 -2
-46 -7 -79 -11 -67 -8 -78 -10 -206 -35 -52 -11 -111 -24 -130 -30 -19 -6 -42
-13 -51 -15 -35 -8 -120 -35 -209 -68 -545 -198 -1036 -585 -1369 -1076 -102
-150 -220 -368 -272 -504 -11 -29 -24 -61 -29 -72 -52 -113 -130 -417 -156
-604 -3 -25 -8 -57 -10 -71 -22 -137 -22 -556 0 -665 2 -11 7 -47 11 -80 23
-200 111 -510 206 -728 48 -108 139 -284 180 -345 16 -24 29 -45 29 -48 0 -7
158 -223 204 -279 113 -136 329 -347 430 -420 15 -11 37 -28 49 -39 68 -58
312 -207 451 -276 276 -135 597 -237 841 -265 28 -3 61 -8 75 -10 66 -12 181
-18 345 -19 194 0 227 3 490 39 39 5 255 56 307 72 29 9 58 17 63 19 34 8 205
73 290 111 615 272 1116 758 1407 1363 33 69 64 135 69 148 5 12 13 32 18 45
53 126 140 442 155 556 4 34 17 119 22 151 29 185 19 589 -20 805 -6 31 -7 38
-27 135 -16 80 -77 295 -106 370 -206 539 -530 970 -993 1317 -128 96 -383
243 -535 308 -242 104 -534 186 -750 211 -27 3 -61 7 -74 9 -52 9 -357 24
-364 19z"/>
</g>
</svg>
